HIERARCHY
ROOT hip
{
	OFFSET 0.000000 0.000000 0.000000 
	CHANNELS 6 Xposition Yposition Zposition Xrotation Zrotation Yrotation
	JOINT abdomen
	{
		OFFSET 0.000000 3.402643 0.000000 
		CHANNELS 3 Xrotation Zrotation Yrotation
		JOINT chest
		{
			OFFSET 0.000000 8.438565 -0.680529 
			CHANNELS 3 Xrotation Zrotation Yrotation
			JOINT neck
			{
				OFFSET 0.000000 10.207942 -0.272212 
				CHANNELS 3 Xrotation Zrotation Yrotation
				JOINT head
				{
					OFFSET 0.000000 3.130431 0.000000 
					CHANNELS 3 Xrotation Zrotation Yrotation
					End Site
					{
						OFFSET 0.000000 3.130435 0.000000 
					}
				}
			}
			JOINT lCollar
			{
				OFFSET 3.470700 6.669187 -0.816635 
				CHANNELS 3 Yrotation Zrotation Xrotation
				JOINT lShldr
				{
					OFFSET 3.198488 0.000000 0.000000 
					CHANNELS 3 Zrotation Yrotation Xrotation
					JOINT lForeArm
					{
						OFFSET 10.139888 0.000000 0.000000 
						CHANNELS 3 Yrotation Zrotation Xrotation
						JOINT lHand
						{
							OFFSET 8.370511 0.000000 0.000000 
							CHANNELS 3 Zrotation Yrotation Xrotation
							End Site
							{
								OFFSET 4.083176 0.000000 0.000000 
							}
						}
					}
				}
			}
			JOINT rCollar
			{
				OFFSET -3.470700 6.669187 -0.816635 
				CHANNELS 3 Yrotation Zrotation Xrotation
				JOINT rShldr
				{
					OFFSET -3.198488 0.000000 0.000000 
					CHANNELS 3 Zrotation Yrotation Xrotation
					JOINT rForeArm
					{
						OFFSET -10.139888 0.000000 0.000000 
						CHANNELS 3 Yrotation Zrotation Xrotation
						JOINT rHand
						{
							OFFSET -8.370511 0.000000 0.000000 
							CHANNELS 3 Zrotation Yrotation Xrotation
							End Site
							{
								OFFSET -4.083176 0.000000 0.000000 
							}
						}
					}
				}
			}
		}
	}
	JOINT lThigh
	{
		OFFSET 5.308129 -1.633274 1.361059 
		CHANNELS 3 Xrotation Zrotation Yrotation
		JOINT lShin
		{
			OFFSET -2.041588 -20.007561 0.000000 
			CHANNELS 3 Xrotation Zrotation Yrotation
			JOINT lFoot
			{
				OFFSET 0.000000 -19.190928 -1.224953 
				CHANNELS 3 Xrotation Yrotation Zrotation
				End Site
				{
					OFFSET 0.000000 -2.449906 4.627600 
				}
			}
		}
	}
	JOINT rThigh
	{
		OFFSET -5.308129 -1.633274 1.361059 
		CHANNELS 3 Xrotation Zrotation Yrotation
		JOINT rShin
		{
			OFFSET 2.041588 -20.007561 0.000000 
			CHANNELS 3 Xrotation Zrotation Yrotation
			JOINT rFoot
			{
				OFFSET 0.000000 -19.190928 -1.224953 
				CHANNELS 3 Xrotation Yrotation Zrotation
				End Site
				{
					OFFSET 0.000000 -2.449906 4.627600 
				}
			}
		}
	}
}
MOTION
Frames: 16
Frame Time: 0.016667
-4.442606 51.621838 -4.720829 2.096109 -0.269538 -41.758396 36.265667 -2.358783 2.792760 0.991131 1.384238 5.001122 -12.494133 1.421738 -0.264454 8.023781 -10.281127 31.668657 -7.656427 -4.819010 -0.256999 -59.814713 7.639133 -13.321918 -96.998550 0.340735 0.239668 -11.902604 -21.346439 4.412232 6.021973 -4.328642 0.216869 74.001053 52.125107 44.306026 103.385201 -5.000000 1.753370 38.359352 -14.970342 -4.762473 -17.378508 26.480459 -11.123189 12.367574 -5.690597 -1.470372 8.918678 -1.756734 -14.346384 12.173385 -12.692309 -7.826519 5.974304 2.087743 0.230179 -8.874926 -16.239868 14.190110 
-4.367651 51.666069 -4.920725 1.898831 -0.240511 -43.584484 36.241287 -2.030179 2.624261 0.898685 1.608917 4.581583 -12.484547 1.460361 -0.270295 7.487494 -10.883985 34.253139 -7.792804 -4.927589 -0.252059 -58.650417 7.685335 -12.886130 -97.255058 1.647300 0.422491 -11.422729 -21.550091 3.919286 5.658267 -3.636148 0.181032 73.923218 50.888237 44.498089 104.227440 -5.000000 1.842723 39.104382 -14.697401 -5.308328 -16.090868 26.823456 -9.126804 11.716475 -5.513675 -1.368572 9.534442 -1.627269 -14.131064 11.549096 -13.044348 -7.102684 5.852831 2.193538 0.236745 -8.556280 -15.531925 13.858106 
-4.292943 51.711349 -5.122718 1.753943 -0.199296 -45.273796 36.196777 -1.666925 2.470704 0.793072 1.823956 4.142302 -12.435857 1.489328 -0.274676 6.949449 -11.481692 36.769352 -7.978791 -5.025114 -0.257937 -57.397202 7.752823 -12.432919 -97.417236 2.885139 0.610583 -10.953088 -21.795425 3.436545 5.265773 -2.972908 0.146684 73.746346 49.755146 44.589870 104.884514 -5.000000 1.920765 39.997093 -14.404580 -5.936227 -14.897712 27.113668 -7.332602 11.004799 -5.348461 -1.255060 10.147163 -1.442943 -13.892871 10.975655 -13.320293 -6.673114 5.621848 2.272876 0.264880 -8.203917 -14.730969 13.559484 
-4.216040 51.756634 -5.326694 1.692313 -0.140546 -46.738480 36.130344 -1.291218 2.326220 0.693255 2.009803 3.673418 -12.387216 1.527950 -0.280517 6.450123 -11.975654 39.080780 -8.126172 -5.033486 -0.268071 -56.174831 7.686108 -11.896070 -97.485008 4.094151 0.794492 -10.597300 -21.926998 3.068566 4.912913 -2.397445 0.116866 73.424980 48.752052 44.457153 105.282944 -5.000000 1.933201 40.360348 -14.424509 -6.246663 -13.891741 27.376074 -5.540809 10.355915 -5.250880 -1.144543 10.871501 -1.315974 -13.606408 10.456373 -13.484131 -6.196609 5.235579 2.309499 0.243736 -7.748744 -14.079785 13.359788 
-4.135847 51.801903 -5.533621 1.749901 -0.045873 -47.851589 36.013046 -0.900734 2.181237 0.609765 2.166402 3.165828 -12.309380 1.585883 -0.289277 6.010578 -12.342902 41.095345 -8.232909 -4.887180 -0.260512 -54.975765 7.436150 -11.218120 -97.379456 5.000000 0.957825 -10.429828 -21.902927 2.908932 4.619156 -1.958528 0.094116 72.883492 47.945946 43.977177 105.303406 -4.936856 1.854273 39.929085 -14.917563 -6.093123 -13.208431 27.600740 -3.777742 9.778375 -5.238581 -1.095257 11.846822 -1.255705 -13.256614 10.009040 -13.486566 -5.666488 4.641479 2.289958 0.208642 -7.086828 -13.678841 13.272936 
-4.055650 51.847183 -5.740557 1.806295 0.051281 -48.974640 35.894627 -0.493449 2.022994 0.534280 2.322999 2.667657 -12.241317 1.643817 -0.298038 5.571733 -12.694114 43.112968 -8.329059 -4.732539 -0.242013 -53.786758 7.168447 -10.550856 -97.286186 5.000000 1.116027 -10.248160 -21.880432 2.733203 4.315796 -1.509857 0.070597 72.368866 47.130657 43.519321 105.314308 -4.576708 1.773701 39.502827 -15.400531 -5.929851 -12.485660 27.814171 -2.003808 9.214243 -5.231700 -1.008287 12.741344 -1.212199 -12.878506 9.558440 -13.494740 -5.157943 4.059648 2.263394 0.193770 -6.420944 -13.228186 13.224346 
-3.959459 51.882008 -5.918761 2.063687 0.088415 -49.707096 35.699760 -0.041011 2.007997 0.476304 2.469818 2.189021 -12.241571 1.692095 -0.305338 5.187678 -12.964940 44.605301 -8.387767 -4.575074 -0.243604 -52.576172 6.650087 -9.777240 -97.520615 5.000000 1.284020 -10.398273 -21.698160 3.106338 3.973707 -1.236725 0.056481 71.785728 46.354069 42.909134 104.535980 -4.299999 1.576645 39.317150 -15.602092 -5.519159 -12.369164 27.969942 0.311417 9.897556 -5.409875 -1.126498 12.524662 -0.733698 -12.187088 9.193986 -13.255918 -4.398640 3.323150 2.162402 0.140496 -5.700886 -13.264262 13.456218 
-3.863255 51.916828 -6.096957 2.332129 0.130613 -50.439629 35.514156 0.406410 2.002282 0.426201 2.626375 1.700642 -12.241832 1.740373 -0.312638 4.802763 -13.224100 46.097488 -8.435932 -4.419025 -0.235564 -51.377007 6.119227 -9.005609 -97.768295 5.000000 1.459949 -10.545521 -21.505320 3.477604 3.631686 -0.963594 0.042364 71.229599 45.565659 42.317623 103.758232 -4.009892 1.387984 39.128235 -15.808023 -5.097486 -12.274662 28.132050 2.642297 10.582159 -5.557351 -1.273802 12.287330 -0.324136 -11.521004 8.823292 -13.030624 -3.672189 2.606042 2.057209 0.108754 -4.980148 -13.287888 13.682164 
-3.747420 51.947472 -6.229166 2.486438 0.209367 -50.908661 35.333038 0.745667 1.862030 0.404529 2.782868 1.231791 -12.222787 1.827274 -0.325777 4.430137 -13.459381 47.313690 -8.532948 -4.262968 -0.227521 -50.202587 5.519002 -8.305419 -98.365379 5.000000 1.708478 -10.785406 -21.396915 3.762119 3.377618 -0.680725 0.027742 70.652519 44.854813 41.703133 102.432320 -3.714558 1.197556 39.069553 -16.014418 -4.990150 -12.410172 27.943911 5.843594 12.347080 -5.496061 -1.441502 10.384595 0.145320 -11.043650 8.569267 -12.933044 -3.259248 1.965999 1.956011 0.082959 -4.310318 -13.294782 13.887270 
-3.618475 51.975338 -6.330708 2.588256 0.306014 -51.192379 35.137436 1.008948 1.635204 0.401280 2.949064 0.762952 -12.194165 1.943140 -0.343295 4.087306 -13.686487 48.328712 -8.669086 -4.116656 -0.219978 -49.050972 4.876832 -7.648280 -99.205482 5.000000 2.023202 -11.111561 -21.323116 4.008234 3.191980 -0.388115 0.012618 70.057869 44.199787 41.058456 100.745087 -3.427096 1.021068 39.090366 -16.229092 -5.086678 -12.793238 27.539022 9.534843 14.884633 -5.272228 -1.607427 7.397978 0.578953 -10.668461 8.422156 -12.912834 -3.101008 1.376250 1.873035 0.040997 -3.707484 -13.244817 14.123100 
-3.487752 52.002853 -6.412265 2.597370 0.389783 -51.417675 34.987106 1.183893 1.369143 0.377273 3.115194 0.313128 -12.136408 2.078318 -0.363731 3.791749 -13.892899 49.271797 -8.805244 -3.970346 -0.212433 -47.899242 4.178554 -6.997211 -100.131897 5.000000 2.383883 -11.550329 -21.211308 4.392510 3.016190 -0.046743 -0.005028 69.453270 43.583527 40.493885 98.765472 -3.088846 0.826671 38.968113 -16.445505 -5.002936 -13.115348 27.069948 13.315487 17.563505 -4.961045 -1.773701 4.240713 0.995458 -10.365663 8.328757 -12.996042 -3.018280 0.848506 1.802523 0.022826 -3.148047 -13.151833 14.307044 
-3.349916 52.028950 -6.413975 2.271873 0.408228 -51.398285 35.013935 1.066907 0.897002 0.255591 3.291015 -0.077613 -12.030463 2.300395 -0.397300 3.751960 -14.054799 49.852329 -8.961130 -3.872794 -0.207401 -46.731678 3.343047 -6.324199 -101.381264 5.000000 2.834067 -12.435596 -20.943201 5.367616 2.938302 0.548179 -0.035779 68.736404 43.119858 40.107773 95.663467 -2.626620 0.540462 38.288445 -16.642130 -4.163542 -13.281115 26.209711 17.228117 20.877609 -4.355046 -1.792967 0.473359 1.436135 -10.443614 8.553626 -13.407564 -3.285766 0.544133 1.845458 0.025474 -2.796599 -13.001754 14.488303 
-3.212075 52.055054 -6.415634 1.944252 0.420594 -51.378819 35.042873 0.949412 0.426069 0.132286 3.466768 -0.468912 -11.914811 2.512815 -0.429832 3.692176 -14.221558 50.437489 -9.126758 -3.765487 -0.201865 -45.567360 2.483698 -5.673133 -102.640472 5.000000 3.325391 -13.306991 -20.662966 6.340964 2.850966 1.143104 -0.066525 68.035881 42.656307 39.739609 92.554092 -2.147739 0.307374 37.597324 -16.816803 -3.311224 -13.505368 25.348190 21.137438 24.230970 -3.750963 -1.792592 -3.372142 1.968033 -10.394794 8.765772 -13.803533 -3.562864 0.253004 1.888025 0.038277 -2.480205 -12.877030 14.603851 
-3.092856 52.050510 -6.324803 1.593938 0.227074 -51.064980 34.986473 0.857646 0.006307 0.048044 3.671752 -0.821227 -11.799592 2.763857 -0.467808 3.981100 -14.405774 50.527431 -9.243464 -3.628932 -0.194820 -44.519665 1.410191 -4.993765 -104.298775 5.000000 3.819312 -13.694551 -20.101927 7.307786 2.754376 1.845308 -0.103121 67.506767 42.340424 39.783401 88.275146 -1.840169 0.019982 37.100365 -17.134123 -2.428941 -13.544272 24.503378 23.659063 27.495798 -3.384327 -1.834370 -5.719352 2.697216 -9.873924 9.205450 -14.165016 -3.808862 0.253482 1.956912 0.037193 -2.429740 -13.041919 14.795259 
-2.978299 52.038284 -6.210793 1.231389 -0.024755 -50.673840 34.892494 0.756051 -0.395992 -0.027456 3.876669 -1.153398 -11.684032 3.016361 -0.496132 4.362449 -14.583731 50.499043 -9.350358 -3.472873 -0.186769 -43.512028 0.276483 -4.320817 -106.061714 5.000000 4.315282 -13.941489 -19.472063 8.262865 2.648516 2.567018 -0.140516 67.011772 42.050625 39.915264 83.698357 -1.569412 -0.253005 36.652260 -17.470243 -1.529866 -13.592524 23.681259 25.861561 30.786549 -3.021451 -1.889424 -7.689651 3.423434 -9.196522 9.706635 -14.521387 -4.040275 0.350072 2.030807 0.012142 -2.515285 -13.284394 15.031216 
-2.868868 52.010056 -6.036373 0.957045 -0.431449 -50.187572 34.741367 0.795349 -0.639998 -0.121860 4.071775 -1.447230 -11.500463 3.297829 -0.528832 4.780883 -14.742476 50.168797 -9.506010 -3.287548 -0.177205 -42.706429 -0.982825 -3.639230 -107.921059 5.000000 4.786450 -14.363290 -18.858261 9.238529 2.504126 3.308239 -0.178899 66.329742 41.572460 39.777729 78.808174 -1.077960 -0.448660 35.941906 -17.514109 -0.566739 -13.417630 22.862925 27.616949 33.693203 -2.752077 -1.917138 -9.282632 3.815368 -8.612853 10.219634 -14.749648 -4.237480 0.722735 2.147387 0.022091 -2.684834 -13.576163 15.295746 
